<?xml version="1.0" encoding="UTF-8" standalone="no"?>
<!DOCTYPE svg PUBLIC "-//W3C//DTD SVG 1.1//EN" "http://www.w3.org/Graphics/SVG/1.1/DTD/svg11.dtd">
<svg width="100%" height="100%" viewBox="0 0 32 32" version="1.1" xmlns="http://www.w3.org/2000/svg" xmlns:xlink="http://www.w3.org/1999/xlink" xml:space="preserve" xmlns:serif="http://www.serif.com/" style="fill-rule:evenodd;clip-rule:evenodd;stroke-linejoin:round;stroke-miterlimit:2;">
    <g transform="matrix(0.0938219,0,0,0.123845,-442.009,-101.414)">
        <g transform="matrix(1.63859,-1.52021e-16,-2.00669e-16,-1.24135,4164.15,1506.25)">
            <path d="M433.725,550.232L438.077,550.278C503.275,550.278 537.011,469.496 490.711,423.196C444.41,376.895 363.628,410.631 363.628,475.829L363.628,544.37C363.628,545.963 364.262,547.489 365.391,548.613C366.519,549.736 368.049,550.364 369.641,550.356L397.442,550.232L433.725,550.232ZM436.301,504.426L422.426,504.426L415.509,504.457C413.916,504.464 412.387,503.836 411.258,502.713C410.13,501.589 409.496,500.063 409.496,498.47L409.496,475.973C409.496,451.042 440.387,438.141 458.092,455.846C475.798,473.552 462.897,504.443 437.965,504.443L436.301,504.426Z" style="fill:rgb(59,115,180);"/>
        </g>
        <g transform="matrix(0.626604,-5.81337e-17,-7.67368e-17,-0.474698,4532.14,1263.78)">
            <path d="M433.725,550.232L397.424,550.232C388.475,550.272 379.878,546.745 373.536,540.431C367.194,534.117 363.628,525.537 363.628,516.587L363.628,475.829C363.628,410.631 444.41,376.895 490.711,423.196C537.011,469.496 503.275,550.278 438.077,550.278L433.725,550.232Z" style="fill:rgb(75,170,150);"/>
        </g>
    </g>
</svg>
